<?xml version="1.0" standalone="no"?>
<!DOCTYPE svg PUBLIC "-//W3C//DTD SVG 1.1//EN" "http://www.w3.org/Graphics/SVG/1.1/DTD/svg11.dtd" >
<svg xmlns="http://www.w3.org/2000/svg" xmlns:xlink="http://www.w3.org/1999/xlink" version="1.1">
<metadata></metadata>
<defs>
<font id="soleillight" horiz-adv-x="1126" >
<font-face units-per-em="2048" ascent="1536" descent="-512" />
<missing-glyph horiz-adv-x="512" />
<glyph unicode="&#xfb01;" horiz-adv-x="1179" d="M111 872v127h116v177q0 173 64 268q79 117 246 117q60 0 139 -23l-21 -119q-54 15 -98 15q-82 0 -127 -35q-38 -30 -50.5 -85.5t-12.5 -150.5v-164h280v-127h-280v-872h-140v872h-116zM854 0v999h139v-999h-139zM854 1223v192h139v-192h-139z" />
<glyph unicode="&#xfb02;" horiz-adv-x="1179" d="M111 872v127h116v177q0 173 64 268q79 117 246 117q60 0 139 -23l-21 -119q-54 15 -98 15q-82 0 -127 -35q-38 -30 -50.5 -85.5t-12.5 -150.5v-164h280v-127h-280v-872h-140v872h-116zM854 0v1536h139v-1536h-139z" />
<glyph unicode="&#xfb03;" horiz-adv-x="1847" d="M111 872v127h116v177q0 173 64 268q79 117 246 117q71 0 180 -37l-35 -115q-63 25 -125 25q-82 0 -127 -35q-38 -30 -50.5 -85.5t-12.5 -150.5v-164h280v-127h-280v-872h-140v872h-116zM778 872v127h117v177q0 174 63 268q79 117 246 117q60 0 139 -23l-20 -119 q-54 15 -98 15q-82 0 -127 -35q-38 -30 -51 -86t-13 -150v-164h281v-127h-281v-872h-139v872h-117zM1522 0v999h139v-999h-139zM1522 1223v192h139v-192h-139z" />
<glyph unicode="&#xfb04;" horiz-adv-x="1847" d="M111 872v127h116v177q0 173 64 268q79 117 246 117q71 0 180 -37l-35 -115q-63 25 -125 25q-82 0 -127 -35q-38 -30 -50.5 -85.5t-12.5 -150.5v-164h280v-127h-280v-872h-140v872h-116zM778 872v127h117v177q0 174 63 268q79 117 246 117q60 0 139 -23l-20 -119 q-54 15 -98 15q-82 0 -127 -35q-38 -30 -51 -86t-13 -150v-164h281v-127h-281v-872h-139v872h-117zM1522 0v1536h139v-1536h-139z" />
<glyph horiz-adv-x="0" />
<glyph horiz-adv-x="682" />
<glyph unicode="&#xd;" horiz-adv-x="1024" />
<glyph unicode=" "  horiz-adv-x="512" />
<glyph unicode="&#x09;" horiz-adv-x="512" />
<glyph unicode="&#xa0;" horiz-adv-x="512" />
<glyph unicode="!" horiz-adv-x="638" d="M229 1219v215h181v-215l-21 -816h-139zM233 0v207h173v-207h-173z" />
<glyph unicode="&#x22;" horiz-adv-x="946" d="M176 1434h156l-17 -521h-122zM614 1434h156l-16 -521h-123z" />
<glyph unicode="#" horiz-adv-x="1605" d="M186 412v123h318l47 288h-213v123h231l68 412h137l-67 -412h264l67 412h138l-68 -412h309v-123h-327l-48 -288h224v-123h-242l-66 -412h-137l66 412h-264l-66 -412h-137l65 412h-299zM641 535h264l47 288h-264z" />
<glyph unicode="$" d="M84 166l104 104q155 -164 365 -164q54 0 107 14t101.5 43.5t78.5 83.5t30 126q0 36 -10 67t-24 54t-42 45.5t-49 36t-62.5 31.5t-64.5 26.5t-71 25.5q-41 15 -62.5 23t-60.5 23.5t-60.5 27.5t-53 31.5t-49.5 38t-39.5 44.5t-33 54t-19 63.5t-7.5 75.5q0 143 101 239 t259 103v195h111v-199q171 -12 328 -123l-95 -108q-108 102 -295 102q-67 0 -125.5 -19.5t-100.5 -68.5t-42 -121q0 -26 5.5 -49t19.5 -42.5t27 -34.5t38.5 -30.5t43 -25t52 -23t53 -20.5t59 -21t58.5 -20q62 -22 106.5 -41.5t95 -52.5t82 -70.5t52.5 -93.5t21 -123 q0 -173 -109.5 -281.5t-281.5 -131.5v-197h-111v192q-233 3 -430 191z" />
<glyph unicode="%" horiz-adv-x="1738" d="M129 1128q0 132 90 225t219 93t220.5 -93t91.5 -225t-91.5 -223.5t-220.5 -91.5t-219 91.5t-90 223.5zM246 1128q0 -83 56 -140.5t136 -57.5q82 0 138.5 57.5t56.5 140.5q0 85 -56.5 143t-138.5 58q-80 0 -136 -58.5t-56 -142.5zM313 51l1018 1401l94 -70l-1017 -1400z M989 303q0 132 90 225t219 93t220.5 -93t91.5 -225t-91.5 -223.5t-220.5 -91.5t-219 91.5t-90 223.5zM1106 303q0 -83 56 -141t136 -58q82 0 138.5 58t56.5 141q0 85 -56.5 143t-138.5 58q-80 0 -136 -58.5t-56 -142.5z" />
<glyph unicode="&#x26;" horiz-adv-x="1380" d="M141 412q0 135 67 237.5t187 155.5q-147 153 -147 315q0 98 58.5 177t147.5 120t187 41q121 0 221 -63t131 -172l-133 -41q-24 67 -85 105t-138 38q-100 0 -173 -59t-73 -158q0 -36 13 -71.5t28.5 -61.5t50.5 -63t57 -57.5t70 -63.5l-88 -107l-33 29q-96 -43 -150 -122.5 t-54 -180.5q0 -123 101 -212t239 -89q108 0 189 39.5t155 136.5l-176 155l92 105l528 -467l-92 -105l-258 230q-92 -124 -206.5 -176t-260.5 -52q-117 0 -223 62t-169 163t-63 212z" />
<glyph unicode="'" horiz-adv-x="507" d="M176 1434h156l-17 -521h-122z" />
<glyph unicode="(" horiz-adv-x="675" d="M119 621q0 147 26.5 276t72.5 230t113 188.5t142.5 153t167.5 122.5l57 -100q-91 -60 -165.5 -137t-137.5 -182t-98 -246t-35 -305q0 -165 34 -306.5t96.5 -247t136.5 -183.5t167 -138l-55 -96q-522 314 -522 971z" />
<glyph unicode=")" horiz-adv-x="675" d="M-23 1491l58 100q92 -57 167.5 -122.5t142.5 -153t113 -188.5t72.5 -230t26.5 -276q0 -657 -522 -971l-55 96q93 60 167 138t136.5 183.5t96.5 247t34 306.5q0 164 -35 305t-98.5 246t-138 182t-165.5 137z" />
<glyph unicode="*" horiz-adv-x="987" d="M154 1165l41 125l243 -90l-10 258h131l-10 -258l244 90l41 -125l-242 -67l166 -211l-105 -78l-159 238l-160 -238l-105 78l164 211z" />
<glyph unicode="+" d="M63 578v122h439v439h123v-439h438v-122h-438v-439h-123v439h-439z" />
<glyph unicode="," horiz-adv-x="512" d="M78 -283l98 490h164l-129 -490h-133z" />
<glyph unicode="-" horiz-adv-x="956" d="M223 496v129h510v-129h-510z" />
<glyph unicode="." horiz-adv-x="512" d="M170 0v207h170v-207h-170z" />
<glyph unicode="/" horiz-adv-x="714" d="M0 -53l598 1614l117 -45l-598 -1614z" />
<glyph unicode="0" d="M92 680q0 329 124 516.5t347 187.5t347 -187.5t124 -516.5t-124 -517t-347 -188t-347 188t-124 517zM246 680q0 -279 82 -422t235 -143t235.5 143t82.5 422t-82.5 422t-235.5 143t-235 -143t-82 -422z" />
<glyph unicode="1" horiz-adv-x="694" d="M119 1081v142q163 80 264 137h96v-1360h-149v1174q-72 -36 -211 -93z" />
<glyph unicode="2" horiz-adv-x="1026" d="M94 1063q9 93 65.5 167t142.5 114t183 40q98 0 186 -44t144.5 -127t56.5 -185q0 -158 -135 -354q-212 -303 -432 -535h647v-139h-837v152q327 347 487 591q113 168 113 291q0 91 -70 151t-166 60q-91 0 -160.5 -60t-78.5 -153z" />
<glyph unicode="3" horiz-adv-x="1044" d="M72 180l104 72q48 -69 125.5 -104t169.5 -35q125 0 215 70t90 190q0 123 -97 194.5t-251 71.5q-54 0 -137 -12l4 157q130 0 213 19q85 20 145 80.5t60 146.5q0 94 -74 154.5t-176 60.5q-80 0 -146 -38.5t-100 -110.5l-131 57q44 109 149 170t232 61q102 0 191 -40.5 t147.5 -123.5t58.5 -192q0 -98 -47.5 -178.5t-138.5 -120.5q113 -34 182.5 -129.5t69.5 -214.5q0 -173 -125.5 -291.5t-315.5 -118.5q-126 0 -234 50t-183 155z" />
<glyph unicode="4" horiz-adv-x="1085" d="M66 379v160q254 323 610 821h160v-852h202v-129h-202v-379h-150v379h-620zM207 508h479v645q-186 -275 -479 -645z" />
<glyph unicode="5" horiz-adv-x="1007" d="M86 182l113 80q57 -70 120 -108.5t146 -38.5q129 0 224 84.5t95 214.5q0 126 -87 206t-216 80q-132 0 -235 -90l-113 47q14 146 47 703h678v-139h-543q-8 -251 -26 -435q87 54 219 54q178 0 304 -121.5t126 -308.5q0 -113 -57 -212.5t-160 -161t-227 -61.5 q-121 0 -231 53.5t-177 153.5z" />
<glyph unicode="6" horiz-adv-x="1085" d="M92 508q0 157 51 303t140.5 262t206.5 205.5t253 144.5l62 -133q-108 -50 -194.5 -109t-159.5 -133.5t-121.5 -167.5t-69.5 -202q143 170 340 170q171 0 282 -129.5t111 -310.5q0 -175 -123 -304t-307 -129q-141 0 -250.5 77.5t-165 198t-55.5 257.5zM246 487 q4 -75 23 -139t55.5 -117.5t97 -84.5t139.5 -31q128 0 203.5 87t75.5 222q0 118 -70 201.5t-190 83.5q-103 0 -190 -61t-144 -161z" />
<glyph unicode="7" horiz-adv-x="905" d="M27 1221v139h833v-121q-125 -260 -291 -632.5t-278 -641.5l-139 62q52 122 112.5 258.5t130.5 288t111.5 241t113 241t78.5 165.5h-671z" />
<glyph unicode="8" horiz-adv-x="1122" d="M123 371q0 115 64.5 205t166.5 137q-190 105 -190 301q0 158 111 264t286 106t286 -106t111 -264q0 -196 -190 -301q102 -47 166.5 -137t64.5 -205q0 -168 -123.5 -282t-314.5 -114t-314.5 114t-123.5 282zM276 375q0 -114 82.5 -187t202.5 -73t202.5 73t82.5 187 q0 107 -83.5 182.5t-201.5 75.5t-201.5 -75.5t-83.5 -182.5zM313 1012q0 -97 73.5 -168.5t174.5 -71.5t174.5 71.5t73.5 168.5q0 101 -72.5 167t-175.5 66t-175.5 -66t-72.5 -167z" />
<glyph unicode="9" horiz-adv-x="1085" d="M92 952q0 113 54 212t154 159.5t222 60.5q141 0 250.5 -77.5t165 -197.5t55.5 -257q0 -157 -51 -303t-140.5 -262t-206.5 -205.5t-253 -144.5l-61 133q223 104 363 252.5t181 359.5q-143 -170 -340 -170q-171 0 -282 129.5t-111 310.5zM246 936q0 -118 70 -201.5 t190 -83.5q103 0 190 60.5t144 160.5q-4 75 -23.5 139t-55.5 118t-97 85t-140 31q-128 0 -203 -87t-75 -222z" />
<glyph unicode=":" horiz-adv-x="512" d="M170 0v207h170v-207h-170zM170 793v206h170v-206h-170z" />
<glyph unicode=";" horiz-adv-x="512" d="M78 -283l98 490h164l-129 -490h-133zM178 793v206h170v-206h-170z" />
<glyph unicode="&#x3c;" d="M63 567v138l1002 399v-133l-844 -336l844 -336v-133z" />
<glyph unicode="=" d="M135 410v122h858v-122h-858zM135 745v123h858v-123h-858z" />
<glyph unicode="&#x3e;" d="M63 166v133l844 336l-844 336v133l1002 -399v-138z" />
<glyph unicode="?" horiz-adv-x="1103" d="M162 1065v4q0 110 56 200.5t145.5 139.5t191.5 49q80 0 153.5 -32t124.5 -83t81 -115.5t30 -129.5q0 -76 -20 -139t-49.5 -105.5t-76 -79.5t-86.5 -59t-94 -45v-267h-153v355q58 20 97.5 36.5t88.5 45.5t79 61.5t50.5 82t20.5 108.5q0 94 -72 162.5t-174 68.5 q-113 0 -181.5 -69t-68.5 -185v-4h-143zM455 0v207h172v-207h-172z" />
<glyph unicode="@" horiz-adv-x="1644" d="M119 414q0 143 56 273.5t150.5 225t224.5 150t273 55.5q195 0 355 -82t254 -234.5t94 -346.5q0 -86 -17.5 -163t-52 -141t-94 -101.5t-137.5 -37.5q-22 0 -44.5 6.5t-51.5 24t-54 56t-39 94.5q-31 -72 -100.5 -113t-149.5 -41q-150 0 -252 103.5t-102 258.5 q0 150 102 256.5t252 106.5q68 0 133.5 -28.5t110.5 -78.5l8 84h109v-323q0 -78 6 -133.5t15 -85.5t23.5 -47t26.5 -21t29 -4q75 0 113.5 97t38.5 243q0 157 -80 279.5t-210.5 186.5t-285.5 64q-117 0 -224 -46.5t-184.5 -125t-123 -186t-45.5 -225.5q0 -157 77 -291.5 t210 -213.5t290 -79q134 0 267 68l26 -125q-137 -64 -293 -64q-143 0 -273 56t-224.5 150.5t-150.5 225t-56 273.5zM559 399q0 -98 64.5 -171.5t160.5 -73.5q80 0 143.5 55.5t100.5 140.5v152q-41 66 -105.5 106.5t-136.5 40.5q-101 0 -164 -73.5t-63 -176.5z" />
<glyph unicode="A" horiz-adv-x="1251" d="M31 0l553 1434h137l500 -1434h-170l-109 326h-631l-123 -326h-157zM362 465h535l-250 756h-2z" />
<glyph unicode="B" horiz-adv-x="1261" d="M211 0v1434h330q240 0 379 -97q139 -98 139 -282q0 -231 -232 -312q289 -70 289 -344q0 -245 -219 -340q-134 -59 -365 -59h-321zM362 139h127q236 0 334 45q131 59 131 215q0 120 -86.5 192.5t-244.5 72.5h-261v-525zM362 803h164q183 0 282 59t99 182q0 133 -90 191 q-55 35 -137.5 47t-200.5 12h-117v-491z" />
<glyph unicode="C" horiz-adv-x="1380" d="M133 717q0 209 104.5 379.5t281.5 266t388 95.5q198 0 359 -98l-70 -117q-139 76 -291 76q-173 0 -312.5 -76.5t-218.5 -214.5t-79 -311q0 -274 168 -438t444 -164q171 0 320 94l80 -117q-184 -117 -402 -117q-219 0 -394.5 92.5t-276.5 262.5t-101 387z" />
<glyph unicode="D" horiz-adv-x="1478" d="M211 0v1434h373q113 0 218.5 -23.5t205.5 -78t174 -135t119 -202.5t45 -272q0 -154 -45 -278t-119.5 -206t-177 -137t-212 -78.5t-229.5 -23.5h-352zM362 139h84q137 0 247 17t203.5 58t155.5 105t97 161.5t35 224.5q0 287 -167 438t-472 151h-183v-1155z" />
<glyph unicode="E" horiz-adv-x="1187" d="M211 0v1434h833v-140h-682v-483h682v-139h-682v-533h682v-139h-833z" />
<glyph unicode="F" horiz-adv-x="1005" d="M211 0v1434h696v-140h-545v-520h545v-139h-545v-635h-151z" />
<glyph unicode="G" horiz-adv-x="1654" d="M133 717q0 209 104.5 379.5t281.5 266t388 95.5q154 0 293.5 -65t239.5 -176l-111 -87q-77 86 -190 137.5t-234 51.5q-173 0 -312.5 -76.5t-218.5 -214.5t-79 -311q0 -274 168 -438t444 -164q252 0 418 157v363h-375v139h527v-532q-100 -124 -250.5 -195.5t-321.5 -71.5 q-219 0 -394.5 92.5t-276.5 262.5t-101 387z" />
<glyph unicode="H" horiz-adv-x="1552" d="M211 0v1434h151v-619h828v619h151v-1434h-151v676h-828v-676h-151z" />
<glyph unicode="I" horiz-adv-x="573" d="M211 0v1434h151v-1434h-151z" />
<glyph unicode="J" horiz-adv-x="696" d="M-8 10l37 129q60 -24 116 -24q66 0 106 15t60.5 51t26.5 79.5t6 116.5v1057h152v-1080q0 -89 -15.5 -155.5t-51.5 -118.5t-100.5 -78.5t-156.5 -26.5q-73 0 -180 35z" />
<glyph unicode="K" horiz-adv-x="1251" d="M211 0v1434h151v-791l658 791h186l-471 -564l508 -870h-178l-434 748l-269 -324v-424h-151z" />
<glyph unicode="L" horiz-adv-x="1011" d="M211 0v1434h151v-1295h639v-139h-790z" />
<glyph unicode="M" horiz-adv-x="1888" d="M211 0v1434h262l469 -1192l471 1192h264v-1434h-151v1311l-529 -1311h-112l-523 1307v-1307h-151z" />
<glyph unicode="N" horiz-adv-x="1533" d="M211 0v1434h113l856 -1153v1153h143v-1434h-115l-854 1151v-1151h-143z" />
<glyph unicode="O" horiz-adv-x="1728" d="M133 717q0 152 56.5 288.5t153.5 236t233 158t288 58.5t288 -58.5t233 -158t153.5 -236t56.5 -288.5t-56.5 -289t-153.5 -236.5t-233 -158t-288 -58.5t-288 58.5t-233 158t-153.5 236.5t-56.5 289zM295 717q0 -125 43 -236.5t118 -191.5t181 -127t227 -47q161 0 292 79.5 t204.5 217.5t73.5 305t-73.5 305t-204.5 217.5t-292 79.5q-121 0 -227 -47t-181 -127t-118 -191.5t-43 -236.5z" />
<glyph unicode="P" horiz-adv-x="1183" d="M211 0v1434h414q71 0 138.5 -14t132 -46t113 -79t78 -119.5t29.5 -161.5t-29.5 -162t-77.5 -120.5t-112.5 -79.5t-132.5 -46t-139 -14h-263v-592h-151zM362 731h211q85 0 152 15t119.5 46.5t81 87t28.5 130.5q0 132 -93.5 208t-246.5 76h-252v-563z" />
<glyph unicode="Q" horiz-adv-x="1728" d="M133 717q0 152 56.5 288.5t153.5 236t233 158t288 58.5t288 -58.5t233 -158t153.5 -236t56.5 -288.5q0 -159 -59.5 -298.5t-167.5 -242.5l199 -199l-103 -102l-211 211q-174 -111 -389 -111q-152 0 -288 58.5t-233 158t-153.5 236.5t-56.5 289zM295 717q0 -125 43 -236.5 t118 -191.5t181 -127t227 -47q157 0 283 75l-211 211l102 103l224 -225q81 83 126.5 196.5t45.5 241.5q0 167 -73.5 305t-204.5 217.5t-292 79.5q-121 0 -227 -47t-181 -127t-118 -191.5t-43 -236.5z" />
<glyph unicode="R" horiz-adv-x="1236" d="M211 0v1434h412q85 0 165.5 -23t151.5 -69t114.5 -127t43.5 -185q0 -159 -98 -265.5t-275 -135.5q281 -383 465 -629h-189l-450 625h-189v-625h-151zM362 764h209q365 0 365 262q0 121 -89.5 194.5t-234.5 73.5h-250v-530z" />
<glyph unicode="S" horiz-adv-x="1247" d="M100 178l115 103q99 -100 186 -133t205 -33q63 0 119.5 16.5t102.5 49.5t73 87.5t27 124.5q0 36 -10.5 67.5t-25 55.5t-43.5 47.5t-52 38.5t-65 34t-67.5 29t-74.5 29q-168 63 -234 102q-155 92 -172 239q-2 20 -2 40q0 126 59 214.5t152 128.5t209 40q246 0 426 -137 l-100 -111q-46 46 -131.5 77.5t-169.5 31.5q-133 0 -211 -59.5t-78 -163.5q0 -29 9.5 -55.5t22 -45.5t40 -39.5t46.5 -32.5t59.5 -29.5t61.5 -25.5t70.5 -26t69.5 -25q54 -20 93 -37.5t85.5 -43.5t78.5 -55.5t60 -67.5t42 -87.5t14 -107.5q0 -93 -31 -169.5t-81 -126 t-114.5 -84t-130 -49t-129.5 -14.5q-154 0 -274.5 48t-229.5 155z" />
<glyph unicode="T" horiz-adv-x="995" d="M51 1294v140h893v-140h-371v-1294h-151v1294h-371z" />
<glyph unicode="U" horiz-adv-x="1482" d="M197 674v760h151v-818q0 -248 103.5 -374.5t289.5 -126.5q187 0 290.5 126.5t103.5 374.5v818h151v-760q0 -346 -132.5 -522.5t-416.5 -176.5q-277 0 -408.5 177t-131.5 522z" />
<glyph unicode="V" horiz-adv-x="1210" d="M10 1434h174l398 -1205h2l454 1205h162l-551 -1434h-141z" />
<glyph unicode="W" horiz-adv-x="1757" d="M10 1434h158l315 -1172h4l326 1172h143l308 -1172h4l331 1172h148l-412 -1434h-149l-303 1180h-4l-326 -1180h-150z" />
<glyph unicode="X" horiz-adv-x="1271" d="M10 0l520 729l-516 705h203l422 -590l418 590h188l-510 -717l527 -717h-203l-432 602l-428 -602h-189z" />
<glyph unicode="Y" horiz-adv-x="1073" d="M10 1434h187l340 -641h6l346 641h174l-463 -822v-612h-151v641z" />
<glyph unicode="Z" horiz-adv-x="1095" d="M82 0v82l711 1212h-697v140h901v-88l-708 -1207h766v-139h-973z" />
<glyph unicode="[" horiz-adv-x="636" d="M215 -348v1884h399v-123h-264v-1638h264v-123h-399z" />
<glyph unicode="\" horiz-adv-x="708" d="M0 1518l111 43l598 -1614l-111 -43z" />
<glyph unicode="]" horiz-adv-x="636" d="M23 -225h264v1638h-264v123h399v-1884h-399v123z" />
<glyph unicode="^" d="M197 727l311 657h110l312 -657h-117l-250 520l-250 -520h-116z" />
<glyph unicode="_" d="M0 -397h1126v-97h-1126v97z" />
<glyph unicode="`" horiz-adv-x="737" d="M154 1456l104 80l242 -324l-88 -69z" />
<glyph unicode="a" horiz-adv-x="1093" d="M113 272q0 71 25.5 129.5t68.5 97.5t100.5 65.5t119.5 38t128 11.5q110 0 227 -30v55q0 258 -256 258q-82 0 -171.5 -25.5t-153.5 -60.5l-47 125q76 36 181 62t197 26q213 0 301.5 -104.5t88.5 -309.5v-610h-125l-11 117q-131 -142 -327 -142q-144 0 -245 80.5 t-101 216.5zM252 289q0 -89 60.5 -144t150.5 -55q162 0 319 150v231q-125 29 -233 29q-54 0 -104.5 -11.5t-95 -35t-71 -66t-26.5 -98.5z" />
<glyph unicode="b" horiz-adv-x="1253" d="M186 0v1536h140v-666q56 74 141.5 114t179.5 40q143 0 261.5 -70.5t184.5 -189.5t66 -260t-66.5 -262.5t-185.5 -194t-262 -72.5q-86 0 -171 32t-148 91v-98h-140zM326 260q55 -71 142.5 -114.5t174.5 -43.5q160 0 266.5 115.5t106.5 278.5q0 165 -106 283t-267 118 q-95 0 -185 -51.5t-132 -136.5v-449z" />
<glyph unicode="c" horiz-adv-x="948" d="M94 500q0 109 39.5 205.5t108 166.5t166.5 111t210 41q131 0 250 -68l-51 -116q-40 27 -98 42t-111 15q-166 0 -268 -115.5t-102 -281.5q0 -173 102 -285.5t272 -112.5q48 0 111.5 19.5t99.5 46.5l72 -107q-128 -86 -272 -86q-153 0 -274 68.5t-188 188.5t-67 268z" />
<glyph unicode="d" horiz-adv-x="1253" d="M94 496q0 141 66.5 262t185.5 193.5t262 72.5q86 0 171.5 -32t148.5 -91v635h139v-1536h-139v129q-56 -74 -142 -114t-180 -40q-143 0 -261.5 70.5t-184.5 190t-66 260.5zM238 504q0 -165 105.5 -283.5t266.5 -118.5q95 0 185.5 52t132.5 137v448q-55 71 -143 114.5 t-175 43.5q-160 0 -266 -115t-106 -278z" />
<glyph unicode="e" horiz-adv-x="1122" d="M94 506q0 220 142.5 369t347.5 149q126 0 228.5 -65t159 -171.5t56.5 -230.5q0 -38 -6 -92h-789q10 -154 106 -262.5t251 -108.5q109 0 187.5 38.5t129.5 133.5l99 -63q-39 -72 -107 -125t-144.5 -78t-154.5 -25q-159 0 -275.5 72.5t-173.5 191t-57 267.5zM238 584h653 q-6 129 -94 225t-213 96q-141 0 -232.5 -88.5t-113.5 -232.5z" />
<glyph unicode="f" horiz-adv-x="667" d="M111 872v127h116v177q0 173 64 268q79 117 246 117q71 0 180 -37l-35 -115q-63 25 -125 25q-82 0 -127 -35q-38 -30 -50.5 -85.5t-12.5 -150.5v-164h280v-127h-280v-872h-140v872h-116z" />
<glyph unicode="g" horiz-adv-x="1239" d="M94 508q0 135 66.5 253.5t185.5 190.5t262 72q86 0 171.5 -32t148.5 -91v98h139v-942q0 -128 -41 -227.5t-112 -159.5t-160 -90.5t-191 -30.5q-112 0 -226.5 38.5t-211.5 103.5l57 116q70 -56 173.5 -93.5t205.5 -37.5q74 0 137.5 19t116 57.5t83 105.5t30.5 156v140 q-56 -74 -142 -114t-180 -40q-143 0 -261.5 70t-184.5 186.5t-66 251.5zM238 516q0 -157 106 -273t266 -116q95 0 185.5 51.5t132.5 136.5v424q-55 71 -143 114.5t-175 43.5q-159 0 -265.5 -113.5t-106.5 -267.5z" />
<glyph unicode="h" horiz-adv-x="1230" d="M186 0v1536h140v-713q121 201 356 201q105 0 179 -32.5t117 -97t62 -150.5t19 -203v-541h-139v518q0 63 -5 112.5t-21.5 101.5t-44 86.5t-75 56.5t-112.5 22q-107 0 -195 -65.5t-141 -167.5v-664h-140z" />
<glyph unicode="i" horiz-adv-x="512" d="M186 0v999h140v-999h-140zM186 1223v192h140v-192h-140z" />
<glyph unicode="j" horiz-adv-x="526" d="M-109 -406l43 115q57 -33 109 -33q86 0 123 50q24 32 30.5 82.5t6.5 136.5v1054h139v-1067q0 -193 -68 -284q-71 -99 -208 -99q-96 0 -175 45zM203 1223v192h139v-192h-139z" />
<glyph unicode="k" horiz-adv-x="1009" d="M186 0v1536h140v-1079l4 -2l450 544h166l-340 -401l389 -598h-170l-313 485l-186 -219v-266h-140z" />
<glyph unicode="l" horiz-adv-x="512" d="M186 0v1536h140v-1536h-140z" />
<glyph unicode="m" horiz-adv-x="1873" d="M186 0v999h140v-176q59 98 146 149.5t187 51.5q239 0 316 -207q92 117 172.5 162t179.5 45q195 0 285 -121.5t90 -361.5v-541h-139v518q0 379 -242 379q-89 0 -173.5 -56t-141.5 -153q8 -60 8 -143v-545h-140v518q0 62 -5 112t-20 102t-40 86.5t-68.5 56.5t-101.5 22 q-91 0 -176 -66.5t-137 -166.5v-664h-140z" />
<glyph unicode="n" horiz-adv-x="1230" d="M186 0v999h140v-176q121 201 356 201q105 0 179 -32.5t117 -97t62 -150.5t19 -203v-541h-139v518q0 63 -5 112.5t-21.5 101.5t-44 86.5t-75 56.5t-112.5 22q-107 0 -195 -65.5t-141 -167.5v-664h-140z" />
<glyph unicode="o" horiz-adv-x="1196" d="M94 500q0 145 63.5 264.5t179.5 189.5t261 70t261 -70t179.5 -189.5t63.5 -264.5t-63.5 -264.5t-179.5 -190t-261 -70.5t-261 70.5t-179.5 190t-63.5 264.5zM238 500q0 -164 99.5 -281t260.5 -117t260.5 117t99.5 281q0 106 -42.5 195.5t-126 145.5t-191.5 56t-191.5 -56 t-126 -145.5t-42.5 -195.5z" />
<glyph unicode="p" horiz-adv-x="1253" d="M186 -512v1511h140v-129q56 74 141.5 114t179.5 40q143 0 261.5 -70.5t184.5 -189.5t66 -260t-66.5 -262.5t-185.5 -194t-262 -72.5q-86 0 -171 32t-148 91v-610h-140zM326 260q55 -71 142.5 -114.5t174.5 -43.5q160 0 266.5 115.5t106.5 278.5q0 165 -106 283t-267 118 q-95 0 -185 -51.5t-132 -136.5v-449z" />
<glyph unicode="q" horiz-adv-x="1253" d="M94 496q0 141 66.5 262t185.5 193.5t262 72.5q86 0 171.5 -32t148.5 -91v98h139v-1511h-139v641q-56 -74 -142 -114t-180 -40q-143 0 -261.5 70.5t-184.5 190t-66 260.5zM238 504q0 -165 105.5 -283.5t266.5 -118.5q95 0 185.5 52t132.5 137v448q-55 71 -143 114.5 t-175 43.5q-160 0 -266 -115t-106 -278z" />
<glyph unicode="r" horiz-adv-x="712" d="M186 0v999h140v-188q46 93 119.5 153t170.5 60q45 0 84 -8l-18 -154q-42 19 -94 19q-81 0 -141.5 -54t-120.5 -159v-668h-140z" />
<glyph unicode="s" horiz-adv-x="897" d="M113 111l84 88q98 -105 229 -105q81 0 145 43t64 123q0 24 -7 45t-16 37t-28.5 31.5t-33 25t-42.5 23t-44 20t-48 19.5q-42 17 -66.5 28t-61.5 31t-58.5 40.5t-44 49t-32.5 65.5t-10 81q0 124 90 196t222 72q155 0 274 -96l-76 -94q-91 71 -202 71q-67 0 -122 -36 t-55 -101q0 -22 6.5 -41.5t14.5 -34t27.5 -30t31 -24.5t40.5 -23t41.5 -19t48 -19.5t46.5 -19.5q54 -22 91.5 -44t75.5 -57t57.5 -84.5t19.5 -113.5q0 -84 -53.5 -150.5t-133 -99.5t-165.5 -33q-87 0 -168 35t-141 101z" />
<glyph unicode="t" horiz-adv-x="690" d="M66 872v127h141v250h139v-250h291v-127h-291v-550q0 -66 10.5 -109t32.5 -65t47.5 -30.5t63.5 -8.5q50 0 123 26l34 -110q-77 -43 -159 -43q-145 0 -218 83t-73 240v567h-141z" />
<glyph unicode="u" horiz-adv-x="1230" d="M172 459v540h139v-518q0 -63 5 -112.5t21.5 -101.5t44 -86.5t75 -56.5t112.5 -22q107 0 195 66t141 168v663h139v-999h-139v176q-121 -201 -356 -201q-105 0 -179 32.5t-117 97t-62 151t-19 203.5z" />
<glyph unicode="v" horiz-adv-x="946" d="M37 999h151l283 -845l301 845h150l-373 -999h-172z" />
<glyph unicode="w" horiz-adv-x="1460" d="M49 999h144l208 -866l246 866h182l224 -864l229 864h137l-278 -999h-176l-234 850l-242 -850h-186z" />
<glyph unicode="x" horiz-adv-x="937" d="M25 0l348 512l-336 487h174l262 -383l256 383h172l-342 -491l354 -508h-174l-276 401l-266 -401h-172z" />
<glyph unicode="y" horiz-adv-x="933" d="M25 999h151l283 -845l301 845h149l-542 -1456l-119 47l133 361z" />
<glyph unicode="z" horiz-adv-x="903" d="M106 872v127h682v-65l-469 -807h504v-127h-694v68l469 804h-492z" />
<glyph unicode="{" horiz-adv-x="606" d="M16 545l4 143q160 38 160 322v155q0 176 99 286t262 110h37v-127q-12 2 -37 2q-78 0 -130 -46t-74 -118t-22 -166v-154q0 -214 -145 -336q145 -122 145 -335v-177q0 -94 22 -165.5t74 -117.5t130 -46q25 0 37 2v-127h-37q-163 0 -262 109.5t-99 285.5v178q0 285 -164 322 z" />
<glyph unicode="|" horiz-adv-x="653" d="M266 -348v2105h121v-2105h-121z" />
<glyph unicode="}" horiz-adv-x="606" d="M29 -223q12 -2 37 -2q78 0 130 46t73.5 117.5t21.5 165.5v177q0 213 145 335q-145 122 -145 336v154q0 94 -21.5 166t-73.5 118t-130 46q-25 0 -37 -2v127h37q163 0 261.5 -110t98.5 -286v-155q0 -284 160 -322l4 -143q-164 -37 -164 -322v-178q0 -176 -98.5 -285.5 t-261.5 -109.5h-37v127z" />
<glyph unicode="~" d="M78 604q0 112 74.5 173t195.5 61q53 0 107 -19.5t98 -47t85.5 -55.5t86 -47.5t84.5 -19.5q51 0 85 28t34 71q0 23 -6 38l118 21q9 -30 9 -66q0 -112 -75 -172.5t-196 -60.5q-65 0 -133 29.5t-115.5 64.5t-106 64.5t-106.5 29.5q-51 0 -84.5 -27.5t-33.5 -70.5 q0 -24 6 -39l-119 -20q-8 27 -8 65z" />
<glyph unicode="&#xa1;" horiz-adv-x="638" d="M229 -219l21 815h139l21 -815v-215h-181v215zM233 793v206h173v-206h-173z" />
<glyph unicode="&#xa2;" d="M174 662q0 196 119 340t309 176v180h113v-172q125 -6 233 -68l-51 -117q-89 58 -213 58q-159 0 -263 -114t-104 -283t100.5 -283.5t268.5 -114.5q56 0 114.5 17t102.5 49l72 -107q-123 -83 -260 -86v-174h-113v182q-192 32 -310 174.5t-118 342.5z" />
<glyph unicode="&#xa3;" d="M172 0v139h119v525h-119v139h119v133q0 131 52 234t144 159q89 55 213 55q142 0 269 -71l-64 -125q-88 57 -205 57q-93 0 -151 -47q-109 -85 -109 -328v-67h277v-139h-277v-525h535v-139h-803z" />
<glyph unicode="&#xa4;" d="M117 291l100 100q-94 118 -94 273q0 151 94 272l-100 100l73 74l103 -102q120 96 270 96q149 0 273 -96l100 102l74 -74l-101 -102q92 -119 92 -270q0 -150 -92 -273l101 -100l-74 -74l-100 100q-123 -92 -273 -92q-151 0 -270 92l-103 -100zM254 664q0 -127 90.5 -217.5 t218.5 -90.5q126 0 216.5 90.5t90.5 217.5t-90.5 218t-216.5 91q-127 0 -218 -90.5t-91 -218.5z" />
<glyph unicode="&#xa5;" d="M57 1358h174l336 -617h4l326 617h168l-410 -721h336v-131h-356v-121h356v-131h-362v-254h-142v254h-362v131h356v121h-356v131h338z" />
<glyph unicode="&#xa6;" horiz-adv-x="653" d="M266 332h121v-750h-121v750zM266 788v748h121v-748h-121z" />
<glyph unicode="&#xa7;" d="M139 -152l80 101q116 -113 281 -113q46 0 90 10.5t84.5 32t65 60.5t24.5 90q0 33 -14.5 61t-35 46.5t-56.5 38t-65 31t-74.5 29t-72.5 29.5q-41 18 -67 30t-61 31.5t-57 37t-46.5 43.5t-38 54t-22.5 65t-9 79q0 99 56 175.5t155 111.5q-147 91 -147 248q0 153 105 236 t266 83q182 0 313 -92l-70 -104q-98 73 -252 73q-38 0 -75.5 -10t-71 -29.5t-54 -53.5t-20.5 -77q0 -50 27.5 -89t72 -63.5t101.5 -49t116.5 -44.5t116.5 -51t101.5 -67t72 -94.5t27.5 -131.5q0 -97 -56.5 -174.5t-154.5 -111.5q67 -41 102 -100t35 -150q0 -153 -118 -239.5 t-285 -86.5q-204 0 -369 135zM293 612q0 -36 15 -66.5t37.5 -52.5t60.5 -43t72.5 -35t84.5 -32q63 -24 82 -29q83 26 138 81t55 138q0 29 -8 54t-26.5 44.5t-37 34.5t-51.5 30.5t-57 25t-66 24.5q-19 6 -56.5 19.5t-48.5 17.5q-77 -14 -135.5 -73.5t-58.5 -137.5z" />
<glyph unicode="&#xa8;" horiz-adv-x="737" d="M106 1223v192h144v-192h-144zM487 1223v192h144v-192h-144z" />
<glyph unicode="&#xa9;" horiz-adv-x="1638" d="M115 680q0 143 55.5 273.5t150 225t225 150t273.5 55.5t273.5 -55.5t225 -150t150.5 -225t56 -273.5q0 -191 -94.5 -353.5t-257 -257t-353.5 -94.5q-143 0 -273.5 56t-225 150.5t-150 225t-55.5 273.5zM242 680q0 -157 77 -291.5t210 -213.5t290 -79q158 0 291.5 79 t210 213.5t76.5 291.5t-76.5 291.5t-210 213.5t-291.5 79q-157 0 -290 -79t-210 -213.5t-77 -291.5zM449 682q0 157 114 264t277 107q111 0 188 -49l-61 -107q-67 31 -133 31q-108 0 -177 -68t-69 -178q0 -118 69 -182t177 -64q81 0 143 43l61 -110q-104 -58 -198 -58 q-162 0 -276.5 103t-114.5 268z" />
<glyph unicode="&#xaa;" horiz-adv-x="772" d="M84 989q0 63 26.5 109t72 71t98.5 36.5t114 11.5q71 0 140 -19v35q0 83 -37 124.5t-123 41.5q-103 0 -225 -56l-37 97q145 63 272 63q78 0 131 -21t81.5 -62t40 -91t11.5 -117v-421h-106l-6 77q-78 -94 -201 -94q-107 0 -179.5 55t-72.5 160zM197 995q0 -61 40 -91 t103 -30q94 0 195 91v143q-68 16 -134 16q-36 0 -68 -5t-64.5 -18t-52 -40t-19.5 -66z" />
<glyph unicode="&#xab;" horiz-adv-x="1081" d="M154 455v207l301 280l55 -133l-262 -250l262 -250l-55 -135zM573 455v207l301 280l54 -133l-260 -250l260 -250l-54 -135z" />
<glyph unicode="&#xac;" d="M55 727v117h1014v-565h-115v448h-899z" />
<glyph unicode="&#xad;" horiz-adv-x="956" d="M223 496v129h508v-129h-508z" />
<glyph unicode="&#xae;" horiz-adv-x="1183" d="M125 999q0 127 62.5 234.5t170 170t234.5 62.5t234.5 -62.5t170 -170t62.5 -234.5t-62.5 -234.5t-170 -170t-234.5 -62.5t-234.5 62.5t-170 170t-62.5 234.5zM227 999q0 -151 107 -258.5t258 -107.5t257.5 107.5t106.5 258.5t-107 259t-257 108q-151 0 -258 -108 t-107 -259zM416 743v502h104q139 0 195.5 -35t56.5 -114q0 -48 -27.5 -88.5t-76.5 -57.5l151 -207h-119l-151 203h-35v-203h-98zM514 1020q32 0 51.5 1t42 5t34.5 11.5t20 22t8 34.5q0 45 -32 58t-124 13v-145z" />
<glyph unicode="&#xaf;" horiz-adv-x="737" d="M86 1243v119h565v-119h-565z" />
<glyph unicode="&#xb0;" horiz-adv-x="950" d="M178 1122q0 123 87 210t210 87t210 -87t87 -210t-87 -210t-210 -87t-210 87t-87 210zM289 1122q0 -76 54.5 -131t131.5 -55t132 55t55 131t-55 131.5t-132 55.5q-76 0 -131 -55t-55 -132z" />
<glyph unicode="&#xb1;" d="M63 0v123h1000v-123h-1000zM63 670v123h439v438h123v-438h438v-123h-438v-439h-123v439h-439z" />
<glyph unicode="&#xb2;" horiz-adv-x="641" d="M70 1380q9 89 83 148t164 59q95 0 165.5 -60t70.5 -155q0 -84 -90 -231q-17 -27 -36.5 -55t-44.5 -60t-41.5 -53.5t-47.5 -59.5t-43 -53h346v-108h-506v102q171 194 279 354q65 99 65 166q0 46 -37 75.5t-88 29.5q-55 0 -90 -33.5t-35 -89.5z" />
<glyph unicode="&#xb3;" horiz-adv-x="622" d="M37 887l100 51q21 -39 61 -62.5t93 -23.5q60 0 102.5 33t42.5 98t-47 102t-121 37q-51 0 -84 -8v119h27q34 0 65 6t59 20t45 41t17 64q0 50 -36 82.5t-91 32.5q-46 0 -81 -25t-42 -65l-102 43q22 72 82.5 113.5t140.5 41.5q107 0 176.5 -60.5t69.5 -158.5q0 -56 -27 -103 t-65 -69q54 -20 93.5 -74t39.5 -123q0 -118 -77.5 -187t-190.5 -69q-78 0 -145.5 37t-104.5 107z" />
<glyph unicode="&#xb4;" horiz-adv-x="737" d="M242 1212l241 324l105 -80l-258 -313z" />
<glyph unicode="&#xb5;" d="M127 -512v1511h139v-518q0 -63 5 -112.5t21.5 -101.5t44 -86.5t75 -56.5t112.5 -22q107 0 195 66t141 168v663h139v-999h-139v176q-121 -201 -356 -201q-146 0 -238 74v-561h-139z" />
<glyph unicode="&#xb6;" d="M98 1014q0 89 30 161.5t79 119.5t114 79t133 46t138 14h113v-1792h-173v948q-66 6 -127 23.5t-117.5 51.5t-98 81.5t-66.5 116t-25 151.5zM274 1012q0 -123 73.5 -191.5t184.5 -81.5v543q-111 -15 -184.5 -82.5t-73.5 -187.5zM836 -358v1792h172v-1792h-172z" />
<glyph unicode="&#xb7;" horiz-adv-x="512" d="M170 541v207h170v-207h-170z" />
<glyph unicode="&#xb8;" horiz-adv-x="706" d="M162 -381l106 53q23 -65 101 -65q40 0 66 29t26 67q0 43 -24.5 73.5t-69.5 30.5q-59 0 -86 -53l-117 64l98 202l98 -20l-57 -137l6 -2q33 33 99 33q80 0 126 -53.5t46 -129.5q0 -81 -63.5 -142t-154.5 -61q-65 0 -117 28.5t-83 82.5z" />
<glyph unicode="&#xb9;" horiz-adv-x="428" d="M74 1378v115q120 61 162 86h73v-827h-119v684q-76 -41 -116 -58z" />
<glyph unicode="&#xba;" horiz-adv-x="835" d="M68 1139q0 153 100.5 258.5t249.5 105.5t249.5 -105.5t100.5 -258.5t-101 -259t-249 -106t-249 106t-101 259zM186 1139q0 -108 66.5 -181t165.5 -73t165 73t66 181t-66 181t-165 73t-165.5 -73t-66.5 -181z" />
<glyph unicode="&#xbb;" horiz-adv-x="1081" d="M154 307l260 250l-260 250l53 135l301 -280v-207l-301 -281zM571 307l263 250l-263 250l56 135l301 -280v-207l-301 -281z" />
<glyph unicode="&#xbc;" horiz-adv-x="1466" d="M150 51l1017 1401l95 -70l-1018 -1400zM225 1249v103q142 75 154 82h61v-742h-110v600q-80 -34 -105 -43zM760 190v111q195 261 319 440h111v-450h113v-101h-113v-190h-111v190h-319zM889 291h190v282q-20 -29 -61.5 -92.5t-75 -113.5t-53.5 -76z" />
<glyph unicode="&#xbd;" horiz-adv-x="1515" d="M150 51l1017 1401l95 -70l-1018 -1400zM225 1249v103q142 75 154 82h61v-742h-110v600q-80 -34 -105 -43zM866 553q6 83 75 140t155 57q87 0 153 -55.5t66 -145.5q0 -82 -80 -205q-70 -105 -193 -242h310v-102h-467v94q147 161 256 320q57 82 57 139q0 42 -32 68t-79 26 q-48 0 -77 -31.5t-29 -85.5z" />
<glyph unicode="&#xbe;" horiz-adv-x="1591" d="M164 821l98 49q44 -86 141 -86q55 0 92 31t37 86q0 56 -43 88.5t-110 32.5q-45 0 -74 -8l2 108q66 0 99 8q94 30 94 113q0 42 -32 70t-85 28q-38 0 -68.5 -22t-40.5 -62l-102 41q25 66 82 105t129 39q98 0 164.5 -55.5t66.5 -143.5q0 -46 -25 -88.5t-63 -64.5 q56 -20 89.5 -69.5t33.5 -113.5q0 -101 -71 -162t-179 -61q-74 0 -138.5 35.5t-96.5 101.5zM274 51l1018 1401l94 -70l-1017 -1400zM885 190v111q195 261 319 440h111v-450h112v-101h-112v-190h-111v190h-319zM1014 291h190v282q-20 -29 -61.5 -92.5t-75 -113.5t-53.5 -76z " />
<glyph unicode="&#xbf;" horiz-adv-x="1103" d="M160 -98q0 76 20 139t49.5 105.5t75.5 79.5t86 59t94 45v266h154v-354q-58 -20 -97.5 -36.5t-88.5 -45.5t-79 -61.5t-50.5 -82t-20.5 -108.5q0 -94 72 -163t174 -69q113 0 181.5 69t68.5 185v4h143v-4q0 -110 -56 -200.5t-145.5 -139.5t-191.5 -49q-80 0 -153.5 32 t-124.5 83t-81 116t-30 130zM477 793v206h172v-206h-172z" />
<glyph unicode="&#xc0;" horiz-adv-x="1298" d="M31 0l553 1434h137l500 -1434h-170l-109 326h-631l-123 -326h-157zM352 1753l92 115l316 -264l-70 -88zM362 465h535l-250 756h-2z" />
<glyph unicode="&#xc1;" horiz-adv-x="1251" d="M31 0l553 1434h137l500 -1434h-170l-109 326h-631l-123 -326h-157zM362 465h535l-250 756h-2zM547 1604l315 264l92 -115l-338 -237z" />
<glyph unicode="&#xc2;" horiz-adv-x="1251" d="M31 0l553 1434h137l500 -1434h-170l-109 326h-631l-123 -326h-157zM360 1591l222 250h145l213 -254l-82 -67l-205 215l-209 -215zM362 465h535l-250 756h-2z" />
<glyph unicode="&#xc3;" horiz-adv-x="1251" d="M31 0l553 1434h137l500 -1434h-170l-109 326h-631l-123 -326h-157zM346 1638q0 78 49 131.5t131 53.5q51 0 97.5 -22t75.5 -49t65.5 -49t69.5 -22t53.5 17t21.5 49q0 17 -2 25l105 12q6 -24 6 -47q0 -78 -49 -131.5t-131 -53.5q-53 0 -100 22t-76 49t-64.5 49t-67.5 22 q-33 0 -53.5 -17t-21.5 -49q0 -16 2 -24l-105 -13q-6 24 -6 47zM362 465h535l-250 756h-2z" />
<glyph unicode="&#xc4;" horiz-adv-x="1251" d="M31 0l553 1434h137l500 -1434h-170l-109 326h-631l-123 -326h-157zM297 1567v219h164v-219h-164zM362 465h535l-250 756h-2zM846 1567v219h164v-219h-164z" />
<glyph unicode="&#xc5;" horiz-adv-x="1251" d="M31 0l553 1434h137l500 -1434h-170l-109 326h-631l-123 -326h-157zM362 465h535l-250 756h-2zM465 1671q0 80 56.5 136.5t135.5 56.5t136 -57t57 -136t-56.5 -135.5t-136.5 -56.5q-79 0 -135.5 56.5t-56.5 135.5zM555 1671q0 -41 30.5 -71.5t71.5 -30.5t72 30.5t31 71.5 t-31 72t-72 31t-71.5 -31t-30.5 -72z" />
<glyph unicode="&#xc6;" horiz-adv-x="1994" d="M-23 0l1045 1434h827v-140h-684v-485h684v-139h-684v-531h684v-139h-829v324h-627l-233 -324h-183zM496 467h524v735z" />
<glyph unicode="&#xc7;" horiz-adv-x="1380" d="M133 717q0 209 104.5 379.5t281.5 266t388 95.5q198 0 359 -98l-70 -117q-139 76 -291 76q-173 0 -312.5 -76.5t-218.5 -214.5t-79 -311q0 -274 168 -438t444 -164q171 0 320 94l80 -117q-184 -117 -402 -117q-62 0 -121 9l-53 -121l6 -2q33 33 99 33q81 0 126.5 -53 t45.5 -130q0 -81 -63 -142t-154 -61q-65 0 -118 28.5t-83 82.5l106 53q23 -65 101 -65q40 0 66 29t26 67q0 43 -24.5 73.5t-67.5 30.5q-61 0 -88 -53l-117 64l88 186q-248 64 -397.5 254t-149.5 459z" />
<glyph unicode="&#xc8;" horiz-adv-x="1187" d="M211 0v1434h833v-140h-682v-483h682v-139h-682v-533h682v-139h-833zM356 1753l93 115l315 -264l-70 -88z" />
<glyph unicode="&#xc9;" horiz-adv-x="1187" d="M211 0v1434h833v-140h-682v-483h682v-139h-682v-533h682v-139h-833zM481 1604l316 264l92 -115l-338 -237z" />
<glyph unicode="&#xca;" horiz-adv-x="1187" d="M211 0v1434h833v-140h-682v-483h682v-139h-682v-533h682v-139h-833zM350 1591l221 250h146l213 -254l-82 -67l-205 215l-209 -215z" />
<glyph unicode="&#xcb;" horiz-adv-x="1187" d="M211 0v1434h833v-140h-682v-483h682v-139h-682v-533h682v-139h-833zM322 1567v219h163v-219h-163zM801 1567v219h164v-219h-164z" />
<glyph unicode="&#xcc;" horiz-adv-x="573" d="M16 1753l93 115l315 -264l-70 -88zM211 0v1434h151v-1434h-151z" />
<glyph unicode="&#xcd;" horiz-adv-x="573" d="M205 1604l315 264l92 -115l-338 -237zM211 0v1434h151v-1434h-151z" />
<glyph unicode="&#xce;" horiz-adv-x="573" d="M-4 1591l221 250h145l213 -254l-81 -67l-205 215l-209 -215zM211 0v1434h151v-1434h-151z" />
<glyph unicode="&#xcf;" horiz-adv-x="573" d="M-35 1567v219h164v-219h-164zM211 0v1434h151v-1434h-151zM444 1567v219h164v-219h-164z" />
<glyph unicode="&#xd0;" horiz-adv-x="1478" d="M63 666v143h148v625h373q113 0 218.5 -23.5t205.5 -78t174 -135t119 -202.5t45 -272q0 -154 -45 -278t-119.5 -206t-177 -137t-212 -78.5t-229.5 -23.5h-352v666h-148zM362 139h84q137 0 247 17t203.5 58t155.5 105t97 161.5t35 224.5q0 287 -167 438t-472 151h-183v-485 h254v-143h-254v-527z" />
<glyph unicode="&#xd1;" horiz-adv-x="1550" d="M219 0v1434h113l856 -1153v1153h143v-1434h-114l-855 1151v-1151h-143zM453 1638q0 78 49 131.5t131 53.5q42 0 80 -14.5t65.5 -35.5t52.5 -42t53 -35.5t56 -14.5q33 0 54 17t22 49q0 17 -2 25l104 12q6 -24 6 -47q0 -78 -49 -131.5t-131 -53.5q-43 0 -81.5 14.5 t-66.5 35.5t-53 42t-52 35.5t-54 14.5q-33 0 -54 -17t-22 -49q0 -16 2 -24l-104 -13q-6 24 -6 47z" />
<glyph unicode="&#xd2;" horiz-adv-x="1728" d="M133 717q0 152 56.5 288.5t153.5 236t233 158t288 58.5t288 -58.5t233 -158t153.5 -236t56.5 -288.5t-56.5 -289t-153.5 -236.5t-233 -158t-288 -58.5t-288 58.5t-233 158t-153.5 236.5t-56.5 289zM295 717q0 -125 43 -236.5t118 -191.5t181 -127t227 -47q161 0 292 79.5 t204.5 217.5t73.5 305t-73.5 305t-204.5 217.5t-292 79.5q-121 0 -227 -47t-181 -127t-118 -191.5t-43 -236.5zM594 1753l92 115l315 -264l-69 -88z" />
<glyph unicode="&#xd3;" horiz-adv-x="1728" d="M133 717q0 152 56.5 288.5t153.5 236t233 158t288 58.5t288 -58.5t233 -158t153.5 -236t56.5 -288.5t-56.5 -289t-153.5 -236.5t-233 -158t-288 -58.5t-288 58.5t-233 158t-153.5 236.5t-56.5 289zM295 717q0 -125 43 -236.5t118 -191.5t181 -127t227 -47q161 0 292 79.5 t204.5 217.5t73.5 305t-73.5 305t-204.5 217.5t-292 79.5q-121 0 -227 -47t-181 -127t-118 -191.5t-43 -236.5zM737 1604l316 264l92 -115l-338 -237z" />
<glyph unicode="&#xd4;" horiz-adv-x="1728" d="M133 717q0 152 56.5 288.5t153.5 236t233 158t288 58.5t288 -58.5t233 -158t153.5 -236t56.5 -288.5t-56.5 -289t-153.5 -236.5t-233 -158t-288 -58.5t-288 58.5t-233 158t-153.5 236.5t-56.5 289zM295 717q0 -125 43 -236.5t118 -191.5t181 -127t227 -47q161 0 292 79.5 t204.5 217.5t73.5 305t-73.5 305t-204.5 217.5t-292 79.5q-121 0 -227 -47t-181 -127t-118 -191.5t-43 -236.5zM569 1591l222 250h145l213 -254l-82 -67l-205 215l-209 -215z" />
<glyph unicode="&#xd5;" horiz-adv-x="1728" d="M133 717q0 152 56.5 288.5t153.5 236t233 158t288 58.5t288 -58.5t233 -158t153.5 -236t56.5 -288.5t-56.5 -289t-153.5 -236.5t-233 -158t-288 -58.5t-288 58.5t-233 158t-153.5 236.5t-56.5 289zM295 717q0 -125 43 -236.5t118 -191.5t181 -127t227 -47q161 0 292 79.5 t204.5 217.5t73.5 305t-73.5 305t-204.5 217.5t-292 79.5q-121 0 -227 -47t-181 -127t-118 -191.5t-43 -236.5zM571 1638q0 78 49.5 131.5t131.5 53.5q42 0 80 -14.5t65.5 -35.5t52.5 -42t53 -35.5t56 -14.5q33 0 54 17t22 49q0 17 -2 25l104 12q6 -24 6 -47 q0 -78 -49 -131.5t-131 -53.5q-43 0 -81.5 14.5t-66.5 35.5t-53 42t-52 35.5t-54 14.5q-33 0 -54 -17t-22 -49q0 -16 2 -24l-104 -13q-7 28 -7 47z" />
<glyph unicode="&#xd6;" horiz-adv-x="1728" d="M133 717q0 152 56.5 288.5t153.5 236t233 158t288 58.5t288 -58.5t233 -158t153.5 -236t56.5 -288.5t-56.5 -289t-153.5 -236.5t-233 -158t-288 -58.5t-288 58.5t-233 158t-153.5 236.5t-56.5 289zM295 717q0 -125 43 -236.5t118 -191.5t181 -127t227 -47q161 0 292 79.5 t204.5 217.5t73.5 305t-73.5 305t-204.5 217.5t-292 79.5q-121 0 -227 -47t-181 -127t-118 -191.5t-43 -236.5zM508 1567v219h164v-219h-164zM1057 1567v219h164v-219h-164z" />
<glyph unicode="&#xd7;" d="M166 326l311 309l-311 309l88 88l309 -311l309 311l89 -88l-312 -309l312 -309l-89 -88l-309 311l-309 -311z" />
<glyph unicode="&#xd8;" horiz-adv-x="1728" d="M133 717q0 152 56.5 288.5t153.5 236t233 158t288 58.5q185 0 348 -88l56 82l112 -70l-57 -86q128 -103 200 -253.5t72 -325.5q0 -152 -56.5 -289t-153.5 -236.5t-233 -158t-288 -58.5q-201 0 -368 99l-68 -101l-113 68l74 109q-121 102 -188.5 250t-67.5 317zM295 717 q0 -132 46 -246.5t130 -198.5l662 979q-127 68 -269 68q-121 0 -227 -47t-181 -127t-118 -191.5t-43 -236.5zM575 193q125 -78 289 -78q161 0 292 79.5t204.5 217.5t73.5 305q0 136 -51.5 255.5t-143.5 203.5z" />
<glyph unicode="&#xd9;" horiz-adv-x="1482" d="M197 674v760h151v-818q0 -248 103.5 -374.5t289.5 -126.5q187 0 290.5 126.5t103.5 374.5v818h151v-760q0 -346 -132.5 -522.5t-416.5 -176.5q-277 0 -408.5 177t-131.5 522zM473 1753l92 115l316 -264l-70 -88z" />
<glyph unicode="&#xda;" horiz-adv-x="1482" d="M197 674v760h151v-818q0 -248 103.5 -374.5t289.5 -126.5q187 0 290.5 126.5t103.5 374.5v818h151v-760q0 -346 -132.5 -522.5t-416.5 -176.5q-277 0 -408.5 177t-131.5 522zM631 1604l315 264l92 -115l-338 -237z" />
<glyph unicode="&#xdb;" horiz-adv-x="1482" d="M197 674v760h151v-818q0 -248 103.5 -374.5t289.5 -126.5q187 0 290.5 126.5t103.5 374.5v818h151v-760q0 -346 -132.5 -522.5t-416.5 -176.5q-277 0 -408.5 177t-131.5 522zM465 1591l221 250h145l213 -254l-81 -67l-205 215l-209 -215z" />
<glyph unicode="&#xdc;" horiz-adv-x="1482" d="M197 674v760h151v-818q0 -248 103.5 -374.5t289.5 -126.5q187 0 290.5 126.5t103.5 374.5v818h151v-760q0 -346 -132.5 -522.5t-416.5 -176.5q-277 0 -408.5 177t-131.5 522zM385 1567v219h164v-219h-164zM934 1567v219h164v-219h-164z" />
<glyph unicode="&#xdd;" horiz-adv-x="1073" d="M10 1434h187l340 -641h6l346 641h174l-463 -822v-612h-151v641zM414 1604l315 264l92 -115l-338 -237z" />
<glyph unicode="&#xde;" horiz-adv-x="1236" d="M211 0v1434h151v-287h263q71 0 138.5 -14t132 -46t113 -79t78 -119.5t29.5 -161.5t-29.5 -162t-77.5 -120.5t-112.5 -79.5t-132.5 -46t-139 -14h-263v-305h-151zM362 444h211q85 0 152 15t119.5 46.5t81 87t28.5 130.5q0 132 -93.5 208.5t-246.5 76.5h-252v-564z" />
<glyph unicode="&#xdf;" horiz-adv-x="1263" d="M176 0v1114q0 197 122.5 322t307.5 125q184 0 306 -113t122 -289q0 -88 -46 -166t-122 -123q139 -32 217 -148.5t78 -264.5q0 -131 -54.5 -240t-162 -175.5t-248.5 -66.5q-123 0 -235 62l63 119q82 -54 187 -54q145 0 226 97t81 245q0 161 -104.5 246.5t-278.5 85.5h-84 v127h35q126 0 217.5 73t91.5 191q0 115 -81 191t-204 76q-142 0 -218.5 -98t-76.5 -265v-1071h-139z" />
<glyph unicode="&#xe0;" horiz-adv-x="1093" d="M113 272q0 71 25.5 129.5t68.5 97.5t100.5 65.5t119.5 38t128 11.5q110 0 227 -30v55q0 258 -256 258q-82 0 -171.5 -25.5t-153.5 -60.5l-47 125q76 36 181 62t197 26q213 0 301.5 -104.5t88.5 -309.5v-610h-125l-11 117q-131 -142 -327 -142q-144 0 -245 80.5 t-101 216.5zM252 289q0 -89 60.5 -144t150.5 -55q162 0 319 150v231q-125 29 -233 29q-54 0 -104.5 -11.5t-95 -35t-71 -66t-26.5 -98.5zM305 1456l105 80l241 -324l-88 -69z" />
<glyph unicode="&#xe1;" horiz-adv-x="1093" d="M113 272q0 71 25.5 129.5t68.5 97.5t100.5 65.5t119.5 38t128 11.5q110 0 227 -30v55q0 258 -256 258q-82 0 -171.5 -25.5t-153.5 -60.5l-47 125q76 36 181 62t197 26q213 0 301.5 -104.5t88.5 -309.5v-610h-125l-11 117q-131 -142 -327 -142q-144 0 -245 80.5 t-101 216.5zM252 289q0 -89 60.5 -144t150.5 -55q162 0 319 150v231q-125 29 -233 29q-54 0 -104.5 -11.5t-95 -35t-71 -66t-26.5 -98.5zM432 1212l242 324l104 -80l-258 -313z" />
<glyph unicode="&#xe2;" horiz-adv-x="1093" d="M113 272q0 71 25.5 129.5t68.5 97.5t100.5 65.5t119.5 38t128 11.5q110 0 227 -30v55q0 258 -256 258q-82 0 -171.5 -25.5t-153.5 -60.5l-47 125q76 36 181 62t197 26q213 0 301.5 -104.5t88.5 -309.5v-610h-125l-11 117q-131 -142 -327 -142q-144 0 -245 80.5 t-101 216.5zM252 289q0 -89 60.5 -144t150.5 -55q162 0 319 150v231q-125 29 -233 29q-54 0 -104.5 -11.5t-95 -35t-71 -66t-26.5 -98.5zM254 1206l203 289h129l202 -291l-83 -57l-181 233l-182 -233z" />
<glyph unicode="&#xe3;" horiz-adv-x="1093" d="M113 272q0 71 25.5 129.5t68.5 97.5t100.5 65.5t119.5 38t128 11.5q110 0 227 -30v55q0 258 -256 258q-82 0 -171.5 -25.5t-153.5 -60.5l-47 125q76 36 181 62t197 26q213 0 301.5 -104.5t88.5 -309.5v-610h-125l-11 117q-131 -142 -327 -142q-144 0 -245 80.5 t-101 216.5zM201 1268q0 74 49.5 124t134.5 50q42 0 80 -14.5t66 -35t53.5 -40.5t53.5 -34.5t56 -14.5q34 0 56.5 18.5t23.5 48.5q0 17 -2 23l105 12q6 -24 6 -45q0 -73 -50 -123.5t-135 -50.5q-44 0 -83 14.5t-66.5 35t-53 40.5t-52.5 34.5t-54 14.5q-34 0 -56.5 -18.5 t-23.5 -49.5q0 -16 2 -22l-104 -12q-6 24 -6 45zM252 289q0 -89 60.5 -144t150.5 -55q162 0 319 150v231q-125 29 -233 29q-54 0 -104.5 -11.5t-95 -35t-71 -66t-26.5 -98.5z" />
<glyph unicode="&#xe4;" horiz-adv-x="1093" d="M113 272q0 71 25.5 129.5t68.5 97.5t100.5 65.5t119.5 38t128 11.5q110 0 227 -30v55q0 258 -256 258q-82 0 -171.5 -25.5t-153.5 -60.5l-47 125q76 36 181 62t197 26q213 0 301.5 -104.5t88.5 -309.5v-610h-125l-11 117q-131 -142 -327 -142q-144 0 -245 80.5 t-101 216.5zM252 289q0 -89 60.5 -144t150.5 -55q162 0 319 150v231q-125 29 -233 29q-54 0 -104.5 -11.5t-95 -35t-71 -66t-26.5 -98.5zM272 1223v192h144v-192h-144zM653 1223v192h144v-192h-144z" />
<glyph unicode="&#xe5;" horiz-adv-x="1093" d="M113 272q0 71 25.5 129.5t68.5 97.5t100.5 65.5t119.5 38t128 11.5q110 0 227 -30v55q0 258 -256 258q-82 0 -171.5 -25.5t-153.5 -60.5l-47 125q76 36 181 62t197 26q213 0 301.5 -104.5t88.5 -309.5v-610h-125l-11 117q-131 -142 -327 -142q-144 0 -245 80.5 t-101 216.5zM252 289q0 -89 60.5 -144t150.5 -55q162 0 319 150v231q-125 29 -233 29q-54 0 -104.5 -11.5t-95 -35t-71 -66t-26.5 -98.5zM346 1325q0 79 57 136t136 57t135.5 -56.5t56.5 -136.5q0 -79 -56.5 -135.5t-135.5 -56.5q-80 0 -136.5 56.5t-56.5 135.5zM436 1325 q0 -41 31 -71.5t72 -30.5t71.5 30.5t30.5 71.5t-30.5 71.5t-71.5 30.5t-72 -30.5t-31 -71.5z" />
<glyph unicode="&#xe6;" horiz-adv-x="1802" d="M113 272q0 71 25.5 129.5t68.5 97.5t100.5 65.5t119.5 38t128 11.5q110 0 227 -30v55q0 258 -256 258q-82 0 -171.5 -25.5t-153.5 -60.5l-47 125q76 36 181 62t197 26q278 0 355 -193q66 91 164 142t213 51q126 0 228.5 -65t159 -171.5t56.5 -230.5q0 -38 -6 -92h-789 q10 -154 106 -262.5t251 -108.5q109 0 187.5 38.5t129.5 133.5l99 -63q-39 -72 -107 -125t-144.5 -78t-154.5 -25q-267 0 -401 195q-152 -195 -420 -195q-144 0 -245 80.5t-101 216.5zM252 289q0 -89 60.5 -144t150.5 -55q189 0 358 191q-31 89 -37 188q-116 31 -235 31 q-54 0 -104.5 -11.5t-95 -35t-71 -66t-26.5 -98.5zM918 584h653q-6 129 -94 225t-213 96q-141 0 -232.5 -88.5t-113.5 -232.5z" />
<glyph unicode="&#xe7;" horiz-adv-x="948" d="M94 500q0 109 39.5 205.5t108 166.5t166.5 111t210 41q131 0 250 -68l-51 -116q-40 27 -98 42t-111 15q-166 0 -268 -115.5t-102 -281.5q0 -173 102 -285.5t272 -112.5q48 0 111.5 19.5t99.5 46.5l72 -107q-128 -86 -272 -86q-21 0 -35 2l-49 -114l6 -2q33 33 98 33 q80 0 126 -53.5t46 -129.5q0 -81 -63 -142t-154 -61q-65 0 -118 28.5t-83 82.5l107 53q23 -65 100 -65q40 0 66 29t26 67q0 43 -24.5 73.5t-69.5 30.5q-59 0 -86 -53l-117 64l84 174q-177 43 -283 181t-106 327z" />
<glyph unicode="&#xe8;" horiz-adv-x="1122" d="M94 506q0 220 142.5 369t347.5 149q126 0 228.5 -65t159 -171.5t56.5 -230.5q0 -38 -6 -92h-789q10 -154 106 -262.5t251 -108.5q109 0 187.5 38.5t129.5 133.5l99 -63q-39 -72 -107 -125t-144.5 -78t-154.5 -25q-159 0 -275.5 72.5t-173.5 191t-57 267.5zM238 584h653 q-6 129 -94 225t-213 96q-141 0 -232.5 -88.5t-113.5 -232.5zM336 1456l104 80l242 -324l-88 -69z" />
<glyph unicode="&#xe9;" horiz-adv-x="1122" d="M94 506q0 220 142.5 369t347.5 149q126 0 228.5 -65t159 -171.5t56.5 -230.5q0 -38 -6 -92h-789q10 -154 106 -262.5t251 -108.5q109 0 187.5 38.5t129.5 133.5l99 -63q-39 -72 -107 -125t-144.5 -78t-154.5 -25q-159 0 -275.5 72.5t-173.5 191t-57 267.5zM238 584h653 q-6 129 -94 225t-213 96q-141 0 -232.5 -88.5t-113.5 -232.5zM465 1212l242 324l104 -80l-258 -313z" />
<glyph unicode="&#xea;" horiz-adv-x="1122" d="M94 506q0 220 142.5 369t347.5 149q126 0 228.5 -65t159 -171.5t56.5 -230.5q0 -38 -6 -92h-789q10 -154 106 -262.5t251 -108.5q109 0 187.5 38.5t129.5 133.5l99 -63q-39 -72 -107 -125t-144.5 -78t-154.5 -25q-159 0 -275.5 72.5t-173.5 191t-57 267.5zM238 584h653 q-6 129 -94 225t-213 96q-141 0 -232.5 -88.5t-113.5 -232.5zM317 1206l203 289h129l203 -291l-84 -57l-180 233l-182 -233z" />
<glyph unicode="&#xeb;" horiz-adv-x="1122" d="M94 506q0 220 142.5 369t347.5 149q126 0 228.5 -65t159 -171.5t56.5 -230.5q0 -38 -6 -92h-789q10 -154 106 -262.5t251 -108.5q109 0 187.5 38.5t129.5 133.5l99 -63q-39 -72 -107 -125t-144.5 -78t-154.5 -25q-159 0 -275.5 72.5t-173.5 191t-57 267.5zM238 584h653 q-6 129 -94 225t-213 96q-141 0 -232.5 -88.5t-113.5 -232.5zM322 1223v192h143v-192h-143zM702 1223v192h144v-192h-144z" />
<glyph unicode="&#xec;" horiz-adv-x="512" d="M0 1456l104 80l242 -324l-88 -69zM186 0v999h140v-999h-140z" />
<glyph unicode="&#xed;" horiz-adv-x="512" d="M158 1212l241 324l105 -80l-258 -313zM186 0v999h140v-999h-140z" />
<glyph unicode="&#xee;" horiz-adv-x="512" d="M-8 1206l203 289h129l202 -291l-84 -57l-180 233l-182 -233zM186 0v999h140v-999h-140z" />
<glyph unicode="&#xef;" horiz-adv-x="512" d="M-6 1223v192h143v-192h-143zM186 0v999h140v-999h-140zM375 1223v192h143v-192h-143z" />
<glyph unicode="&#xf0;" horiz-adv-x="1148" d="M94 481q0 120 62 227t171 172.5t238 65.5q135 0 252 -69q-109 210 -344 364l-137 -223l-100 65l133 222q-99 55 -224 108l54 123q126 -54 239 -119l127 209l101 -65l-127 -207q239 -163 377.5 -384t138.5 -495q0 -135 -60 -248t-174.5 -182.5t-261.5 -69.5 q-107 0 -196.5 42.5t-147 113.5t-89.5 161.5t-32 188.5zM238 473q0 -155 94.5 -263t247.5 -108q86 0 151.5 30.5t104 84.5t57 122t18.5 148q0 107 -26 218q-137 114 -295 114q-151 0 -251.5 -94t-100.5 -252z" />
<glyph unicode="&#xf1;" horiz-adv-x="1230" d="M186 0v999h140v-176q121 201 356 201q105 0 179 -32.5t117 -97t62 -150.5t19 -203v-541h-139v518q0 63 -5 112.5t-21.5 101.5t-44 86.5t-75 56.5t-112.5 22q-107 0 -195 -65.5t-141 -167.5v-664h-140zM291 1268q0 74 49.5 124t134.5 50q42 0 80 -14.5t66 -35t53.5 -40.5 t53.5 -34.5t56 -14.5q34 0 56.5 18.5t23.5 48.5q0 17 -2 23l105 12q6 -24 6 -45q0 -73 -50 -123.5t-135 -50.5q-44 0 -83 14.5t-66.5 35t-53 40.5t-52.5 34.5t-54 14.5q-34 0 -56.5 -18.5t-23.5 -49.5q0 -16 2 -22l-104 -12q-6 24 -6 45z" />
<glyph unicode="&#xf2;" horiz-adv-x="1196" d="M94 500q0 145 63.5 264.5t179.5 189.5t261 70t261 -70t179.5 -189.5t63.5 -264.5t-63.5 -264.5t-179.5 -190t-261 -70.5t-261 70.5t-179.5 190t-63.5 264.5zM238 500q0 -164 99.5 -281t260.5 -117t260.5 117t99.5 281q0 106 -42.5 195.5t-126 145.5t-191.5 56t-191.5 -56 t-126 -145.5t-42.5 -195.5zM348 1456l105 80l241 -324l-88 -69z" />
<glyph unicode="&#xf3;" horiz-adv-x="1196" d="M94 500q0 145 63.5 264.5t179.5 189.5t261 70t261 -70t179.5 -189.5t63.5 -264.5t-63.5 -264.5t-179.5 -190t-261 -70.5t-261 70.5t-179.5 190t-63.5 264.5zM238 500q0 -164 99.5 -281t260.5 -117t260.5 117t99.5 281q0 106 -42.5 195.5t-126 145.5t-191.5 56t-191.5 -56 t-126 -145.5t-42.5 -195.5zM541 1212l241 324l105 -80l-258 -313z" />
<glyph unicode="&#xf4;" horiz-adv-x="1196" d="M94 500q0 145 63.5 264.5t179.5 189.5t261 70t261 -70t179.5 -189.5t63.5 -264.5t-63.5 -264.5t-179.5 -190t-261 -70.5t-261 70.5t-179.5 190t-63.5 264.5zM238 500q0 -164 99.5 -281t260.5 -117t260.5 117t99.5 281q0 106 -42.5 195.5t-126 145.5t-191.5 56t-191.5 -56 t-126 -145.5t-42.5 -195.5zM332 1206l203 289h129l202 -291l-84 -57l-180 233l-182 -233z" />
<glyph unicode="&#xf5;" horiz-adv-x="1196" d="M94 500q0 145 63.5 264.5t179.5 189.5t261 70t261 -70t179.5 -189.5t63.5 -264.5t-63.5 -264.5t-179.5 -190t-261 -70.5t-261 70.5t-179.5 190t-63.5 264.5zM238 500q0 -164 99.5 -281t260.5 -117t260.5 117t99.5 281q0 106 -42.5 195.5t-126 145.5t-191.5 56t-191.5 -56 t-126 -145.5t-42.5 -195.5zM270 1268q0 73 50 123.5t135 50.5q42 0 80 -14.5t66 -35t53.5 -40.5t53.5 -34.5t56 -14.5q34 0 56.5 18.5t23.5 48.5q0 17 -2 23l104 12q6 -24 6 -45q0 -74 -49.5 -124t-134.5 -50q-44 0 -83 14.5t-66.5 35t-53 40.5t-52.5 34.5t-54 14.5 q-34 0 -56.5 -18.5t-23.5 -49.5q0 -16 2 -22l-105 -12q-6 24 -6 45z" />
<glyph unicode="&#xf6;" horiz-adv-x="1196" d="M94 500q0 145 63.5 264.5t179.5 189.5t261 70t261 -70t179.5 -189.5t63.5 -264.5t-63.5 -264.5t-179.5 -190t-261 -70.5t-261 70.5t-179.5 190t-63.5 264.5zM238 500q0 -164 99.5 -281t260.5 -117t260.5 117t99.5 281q0 106 -42.5 195.5t-126 145.5t-191.5 56t-191.5 -56 t-126 -145.5t-42.5 -195.5zM338 1223v192h143v-192h-143zM719 1223v192h143v-192h-143z" />
<glyph unicode="&#xf7;" d="M63 438v123h1000v-123h-1000zM479 0v207h170v-207h-170zM479 793v206h170v-206h-170z" />
<glyph unicode="&#xf8;" horiz-adv-x="1196" d="M94 500q0 145 63.5 264.5t179.5 189.5t261 70q128 0 240 -59l51 75l94 -59l-53 -80q82 -72 127 -176t45 -225q0 -145 -63.5 -264.5t-179.5 -190t-261 -70.5q-138 0 -254 66l-51 -76l-92 60l55 81q-77 73 -119.5 175t-42.5 219zM238 500q0 -163 96 -279l430 635 q-74 41 -166 41q-108 0 -191.5 -56t-126 -145.5t-42.5 -195.5zM418 150q79 -48 180 -48q161 0 260.5 117t99.5 281q0 82 -27.5 157.5t-78.5 130.5z" />
<glyph unicode="&#xf9;" horiz-adv-x="1230" d="M172 459v540h139v-518q0 -63 5 -112.5t21.5 -101.5t44 -86.5t75 -56.5t112.5 -22q107 0 195 66t141 168v663h139v-999h-139v176q-121 -201 -356 -201q-105 0 -179 32.5t-117 97t-62 151t-19 203.5zM379 1456l104 80l242 -324l-88 -69z" />
<glyph unicode="&#xfa;" horiz-adv-x="1230" d="M172 459v540h139v-518q0 -63 5 -112.5t21.5 -101.5t44 -86.5t75 -56.5t112.5 -22q107 0 195 66t141 168v663h139v-999h-139v176q-121 -201 -356 -201q-105 0 -179 32.5t-117 97t-62 151t-19 203.5zM520 1212l242 324l104 -80l-258 -313z" />
<glyph unicode="&#xfb;" horiz-adv-x="1230" d="M172 459v540h139v-518q0 -63 5 -112.5t21.5 -101.5t44 -86.5t75 -56.5t112.5 -22q107 0 195 66t141 168v663h139v-999h-139v176q-121 -201 -356 -201q-105 0 -179 32.5t-117 97t-62 151t-19 203.5zM350 1206l203 289h129l203 -291l-84 -57l-180 233l-183 -233z" />
<glyph unicode="&#xfc;" horiz-adv-x="1230" d="M172 459v540h139v-518q0 -63 5 -112.5t21.5 -101.5t44 -86.5t75 -56.5t112.5 -22q107 0 195 66t141 168v663h139v-999h-139v176q-121 -201 -356 -201q-105 0 -179 32.5t-117 97t-62 151t-19 203.5zM350 1223v192h144v-192h-144zM731 1223v192h143v-192h-143z" />
<glyph unicode="&#xfd;" horiz-adv-x="933" d="M25 999h151l283 -845l301 845h149l-542 -1456l-119 47l133 361zM387 1212l242 324l104 -80l-258 -313z" />
<glyph unicode="&#xfe;" horiz-adv-x="1253" d="M186 -537v2073h140v-666q56 74 141.5 114t179.5 40q143 0 261.5 -70.5t184.5 -189.5t66 -260t-66.5 -262.5t-185.5 -194t-262 -72.5q-86 0 -171 32t-148 91v-635h-140zM326 260q55 -71 142.5 -114.5t174.5 -43.5q160 0 266.5 115.5t106.5 278.5q0 165 -106 283t-267 118 q-95 0 -185 -51.5t-132 -136.5v-449z" />
<glyph unicode="&#xff;" horiz-adv-x="933" d="M25 999h151l283 -845l301 845h149l-542 -1456l-119 47l133 361zM209 1223v192h143v-192h-143zM590 1223v192h143v-192h-143z" />
<glyph unicode="&#x152;" horiz-adv-x="2183" d="M133 717q0 152 56.5 288.5t153.5 236t233 158t288 58.5q180 0 342 -104v80h834v-140h-682v-483h682v-139h-682v-533h682v-139h-834v80q-158 -105 -342 -105q-152 0 -288 58.5t-233 158t-153.5 236.5t-56.5 289zM295 717q0 -125 43 -236.5t118 -191.5t181 -127t227 -47 q197 0 342 114v975q-146 115 -342 115q-121 0 -227 -47t-181 -127t-118 -191.5t-43 -236.5z" />
<glyph unicode="&#x153;" horiz-adv-x="1984" d="M94 500q0 145 63.5 264.5t179.5 189.5t261 70q143 0 255 -68.5t175 -185.5q62 117 172.5 185.5t245.5 68.5q126 0 228.5 -65t159 -171.5t56.5 -230.5q0 -38 -6 -92h-788q10 -154 105.5 -262.5t250.5 -108.5q109 0 187.5 38.5t129.5 133.5l99 -63q-39 -72 -107 -125 t-144.5 -78t-154.5 -25q-155 0 -266 67t-170 185q-63 -117 -174.5 -184.5t-253.5 -67.5q-145 0 -261 70.5t-179.5 190t-63.5 264.5zM238 500q0 -164 99.5 -281t260.5 -117t260.5 117t99.5 281q0 106 -42.5 195.5t-126 145.5t-191.5 56t-191.5 -56t-126 -145.5t-42.5 -195.5z M1100 584h653q-6 129 -94 225t-213 96q-141 0 -232.5 -88.5t-113.5 -232.5z" />
<glyph unicode="&#x178;" horiz-adv-x="1073" d="M10 1434h187l340 -641h6l346 641h174l-463 -822v-612h-151v641zM238 1567v219h163v-219h-163zM717 1567v219h164v-219h-164z" />
<glyph unicode="&#x2c6;" horiz-adv-x="737" d="M102 1206l203 289h129l203 -291l-84 -57l-180 233l-183 -233z" />
<glyph unicode="&#x2dc;" horiz-adv-x="737" d="M29 1268q0 74 49.5 124t134.5 50q42 0 80 -14.5t66 -35t53.5 -40.5t53.5 -34.5t56 -14.5q34 0 56.5 18.5t23.5 48.5q0 17 -2 23l105 12q6 -24 6 -45q0 -73 -50 -123.5t-135 -50.5q-44 0 -83 14.5t-66.5 35t-53 40.5t-52.5 34.5t-54 14.5q-34 0 -56.5 -18.5t-23.5 -49.5 q0 -16 2 -22l-104 -12q-6 24 -6 45z" />
<glyph unicode="&#x2000;" horiz-adv-x="934" />
<glyph unicode="&#x2001;" horiz-adv-x="1868" />
<glyph unicode="&#x2002;" horiz-adv-x="934" />
<glyph unicode="&#x2003;" horiz-adv-x="1868" />
<glyph unicode="&#x2004;" horiz-adv-x="622" />
<glyph unicode="&#x2005;" horiz-adv-x="467" />
<glyph unicode="&#x2006;" horiz-adv-x="311" />
<glyph unicode="&#x2007;" horiz-adv-x="311" />
<glyph unicode="&#x2008;" horiz-adv-x="233" />
<glyph unicode="&#x2009;" horiz-adv-x="373" />
<glyph unicode="&#x200a;" horiz-adv-x="103" />
<glyph unicode="&#x2010;" horiz-adv-x="956" d="M223 496v129h510v-129h-510z" />
<glyph unicode="&#x2011;" horiz-adv-x="956" d="M223 496v129h510v-129h-510z" />
<glyph unicode="&#x2012;" horiz-adv-x="956" d="M223 496v129h510v-129h-510z" />
<glyph unicode="&#x2013;" horiz-adv-x="1228" d="M102 555v133h1024v-133h-1024z" />
<glyph unicode="&#x2014;" horiz-adv-x="1843" d="M102 555v133h1639v-133h-1639z" />
<glyph unicode="&#x2018;" horiz-adv-x="526" d="M135 948l127 486h129l-100 -486h-156z" />
<glyph unicode="&#x2019;" horiz-adv-x="526" d="M135 948l101 486h155l-127 -486h-129z" />
<glyph unicode="&#x201a;" horiz-adv-x="526" d="M135 -283l101 486h155l-127 -486h-129z" />
<glyph unicode="&#x201c;" horiz-adv-x="1003" d="M184 948l127 486h129l-100 -486h-156zM563 948l127 486h129l-100 -486h-156z" />
<glyph unicode="&#x201d;" horiz-adv-x="1003" d="M184 948l101 486h155l-127 -486h-129zM565 948l99 486h155l-127 -486h-127z" />
<glyph unicode="&#x201e;" horiz-adv-x="1003" d="M184 -283l101 486h155l-127 -486h-129zM565 -283l99 486h155l-127 -486h-127z" />
<glyph unicode="&#x2022;" horiz-adv-x="612" d="M72 592q0 98 68.5 166.5t166.5 68.5t166 -68.5t68 -166.5t-68 -167t-166 -69t-166.5 69t-68.5 167z" />
<glyph unicode="&#x2026;" horiz-adv-x="1536" d="M170 0v207h170v-207h-170zM682 0v207h170v-207h-170zM1194 0v207h170v-207h-170z" />
<glyph unicode="&#x202f;" horiz-adv-x="373" />
<glyph unicode="&#x2039;" horiz-adv-x="663" d="M154 455v207l301 280l55 -133l-262 -250l262 -250l-55 -135z" />
<glyph unicode="&#x203a;" horiz-adv-x="661" d="M154 307l260 250l-260 250l53 135l301 -280v-207l-301 -281z" />
<glyph unicode="&#x205f;" horiz-adv-x="467" />
<glyph unicode="&#x20ac;" horiz-adv-x="1331" d="M16 459v131h164q-4 58 -4 92q0 28 4 86h-164v131h185q59 227 232.5 356t428.5 129q95 0 197.5 -24t169.5 -66l-66 -118q-56 32 -139.5 49.5t-161.5 17.5q-193 0 -325 -89.5t-183 -254.5h598v-131h-624q-4 -29 -4 -86q0 -34 4 -92h624v-131h-596q54 -163 185.5 -252.5 t320.5 -89.5q191 0 334 86l76 -115q-82 -52 -190 -82.5t-214 -30.5q-250 0 -427 128t-238 356h-187z" />
<glyph unicode="&#x2122;" horiz-adv-x="2000" d="M178 1319v115h524v-115h-200v-696h-121v696h-203zM870 623v811h203l270 -697l273 697h205v-811h-123v688l-279 -688h-151l-275 682v-682h-123z" />
<glyph unicode="&#x25fc;" horiz-adv-x="1003" d="M0 0v1004h1004v-1004h-1004z" />
</font>
</defs>
</svg>
